<svg width="1440" height="1432" viewBox="0 0 1440 1432" fill="none" xmlns="http://www.w3.org/2000/svg">
<g opacity="0.8" filter="url(#filter0_f_208_113)">
<path d="M1810 781.5C1810 971.762 1658 1126 1470.5 1126C1283 1126 1131 971.762 1131 781.5C1131 591.238 1283 437 1470.5 437C1658 437 1810 591.238 1810 781.5Z" fill="#A4D7D7" fill-opacity="0.5"/>
</g>
<g opacity="0.8" filter="url(#filter1_f_208_113)">
<path d="M870 -121.5C870 68.7621 718.001 223 530.5 223C342.999 223 191 68.7621 191 -121.5C191 -311.762 342.999 -466 530.5 -466C718.001 -466 870 -311.762 870 -121.5Z" fill="#9090DB" fill-opacity="0.5"/>
</g>
<defs>
<filter id="filter0_f_208_113" x="825" y="131" width="1291" height="1301" filterUnits="userSpaceOnUse" color-interpolation-filters="sRGB">
<feFlood flood-opacity="0" result="BackgroundImageFix"/>
<feBlend mode="normal" in="SourceGraphic" in2="BackgroundImageFix" result="shape"/>
<feGaussianBlur stdDeviation="153" result="effect1_foregroundBlur_208_113"/>
</filter>
<filter id="filter1_f_208_113" x="-115" y="-772" width="1291" height="1301" filterUnits="userSpaceOnUse" color-interpolation-filters="sRGB">
<feFlood flood-opacity="0" result="BackgroundImageFix"/>
<feBlend mode="normal" in="SourceGraphic" in2="BackgroundImageFix" result="shape"/>
<feGaussianBlur stdDeviation="153" result="effect1_foregroundBlur_208_113"/>
</filter>
</defs>
</svg>
